<?xml version="1.0" standalone="no"?>
<!DOCTYPE svg PUBLIC "-//W3C//DTD SVG 20010904//EN"
 "http://www.w3.org/TR/2001/REC-SVG-20010904/DTD/svg10.dtd">
<svg version="1.0" xmlns="http://www.w3.org/2000/svg"
 width="25.555556pt" height="30.000000pt" viewBox="0 0 25.555556 30.000000"
 preserveAspectRatio="xMidYMid meet">
<metadata>
Created by potrace 1.16, written by Peter Selinger 2001-2019
</metadata>
<g transform="translate(0.000000,30.000000) scale(0.011111,-0.011111)"
fill="#000000" stroke="none">
<path d="M1264 2549 c-34 -38 -104 -72 -148 -73 -23 -1 -61 8 -85 19 l-43 19
-18 -22 c-16 -20 -17 -25 -3 -64 25 -73 0 -173 -58 -225 -21 -19 -48 -55 -61
-81 -22 -45 -23 -59 -24 -267 -1 -274 -5 -287 -134 -456 -151 -197 -219 -346
-228 -498 -4 -80 -4 -84 14 -75 11 5 41 9 68 9 45 0 51 -3 91 -47 23 -26 63
-87 89 -135 25 -48 59 -103 74 -122 26 -30 32 -33 58 -24 20 6 32 19 38 40 15
50 87 66 182 41 31 -9 50 -20 57 -35 8 -18 13 -20 29 -12 14 7 23 7 33 -1 8
-6 23 -9 34 -5 13 4 31 -4 58 -27 l38 -33 -33 41 c-17 23 -32 44 -32 47 0 12
63 25 96 20 25 -4 39 -2 45 8 15 24 10 31 -21 24 -20 -4 -30 -3 -30 5 0 8 -10
10 -25 8 -22 -5 -24 -3 -13 11 10 13 9 13 -8 -1 -11 -10 -30 -19 -42 -21 -12
-2 -25 -6 -28 -10 -13 -12 -34 -7 -34 8 0 18 -2 18 -35 3 -36 -16 -43 -3 -14
29 l24 27 -25 -17 c-55 -37 -64 -41 -57 -23 8 20 -9 21 -20 1 -6 -10 -13 -11
-23 -5 -12 8 -11 10 5 10 17 0 18 2 5 11 -11 7 -7 9 17 7 25 -2 40 5 65 29 38
35 79 58 126 68 35 7 38 4 21 -28 -9 -16 -2 -13 31 13 23 18 52 34 65 35 28 1
71 29 86 56 10 19 9 20 -13 14 -12 -4 -43 -20 -68 -35 -25 -15 -62 -30 -83
-33 -21 -3 -63 -17 -93 -31 -38 -18 -61 -23 -72 -17 -9 5 -23 5 -31 1 -9 -5
-25 -12 -36 -16 -16 -6 -12 -9 20 -14 39 -5 38 -6 -25 -14 -47 -5 -70 -14 -87
-31 -13 -12 -38 -30 -55 -38 -31 -15 -32 -15 -58 21 -33 46 -81 88 -159 142
-119 80 -145 184 -87 343 15 42 33 80 39 84 7 4 8 0 2 -13 -48 -117 -56 -204
-24 -274 l21 -45 19 89 c20 100 20 100 101 283 61 139 108 285 108 335 0 16
-9 41 -20 55 -27 34 -25 59 6 88 24 23 25 25 10 54 -22 42 -20 119 4 159 20
33 46 40 79 22 20 -10 51 -78 51 -110 0 -17 7 -20 40 -20 38 0 40 2 40 30 0
73 47 130 107 130 76 0 129 -124 88 -204 -14 -27 -14 -31 6 -52 18 -19 21 -31
15 -62 -9 -58 38 -194 145 -424 38 -81 77 -177 87 -215 17 -60 22 -68 45 -71
23 -3 26 1 32 42 14 91 -18 199 -86 289 l-31 42 36 -40 c73 -83 116 -191 116
-297 0 -56 1 -58 38 -77 50 -26 86 -66 88 -99 0 -19 7 -28 22 -30 27 -4 42 46
42 138 0 141 -63 286 -205 475 -54 72 -112 162 -130 200 -32 68 -33 74 -39
240 -4 131 -10 185 -25 234 -18 60 -19 67 -5 97 18 38 41 60 86 82 36 18 50
61 27 88 -13 16 -79 19 -79 4 0 -17 -66 -11 -83 8 -9 10 -20 36 -25 58 -5 26
-15 42 -30 49 -29 13 -36 35 -18 53 13 13 17 13 32 1 16 -13 16 -12 5 8 -23
45 -67 55 -97 22z m23 -181 c19 -9 31 -25 38 -52 7 -22 17 -41 23 -42 7 -1 8
0 2 3 -16 8 -12 21 10 28 24 8 85 -27 101 -57 10 -18 9 -20 -7 -14 -14 5 -16
4 -8 -4 9 -9 8 -19 -4 -40 l-16 -28 -33 29 c-60 52 -185 101 -258 102 -78 0
-155 -9 -155 -17 0 -5 -3 -6 -7 -2 -5 4 1 14 11 22 11 8 14 14 8 14 -7 0 -12
5 -12 11 0 5 5 7 10 4 6 -3 10 1 10 10 0 9 5 13 10 10 6 -3 10 -1 10 5 0 7 17
10 48 8 43 -3 47 -5 44 -28 -1 -15 1 -20 6 -13 5 8 13 9 22 3 22 -14 27 -12
33 13 6 21 6 21 -8 3 -13 -17 -15 -18 -15 -3 0 9 10 27 21 38 23 23 64 22 116
-3z m-35 -135 c34 -20 78 -76 78 -99 0 -11 -43 -14 -225 -14 -167 0 -225 3
-225 12 0 22 97 105 136 116 60 17 197 8 236 -15z"/>
<path d="M1266 1592 c-3 -5 -22 -14 -43 -21 -22 -7 -50 -22 -63 -33 -14 -11
-19 -17 -12 -13 8 4 12 -2 12 -19 0 -30 7 -32 39 -10 16 12 21 23 17 38 -4 15
-1 23 8 23 10 0 11 -9 6 -34 -5 -18 -5 -33 -2 -33 3 0 -3 -7 -14 -15 -19 -15
-19 -15 5 -35 13 -11 21 -20 18 -20 -3 0 -2 -14 3 -31 7 -23 5 -37 -5 -53 -8
-11 -15 -27 -15 -35 0 -23 -84 -121 -99 -115 -12 4 -12 2 0 -13 12 -15 12 -16
-3 -10 -12 4 -18 1 -18 -9 0 -9 -7 -14 -17 -12 -12 2 -17 -2 -15 -12 2 -8 -26
13 -61 48 -36 34 -70 62 -76 62 -7 0 -11 36 -10 108 0 59 3 101 6 95 8 -22 25
-14 18 8 -5 15 -4 19 4 15 6 -4 11 -3 11 3 0 5 -4 13 -10 16 -5 3 -10 11 -10
16 0 6 6 7 13 3 8 -5 8 -2 -2 9 -10 13 -11 20 -2 31 9 10 8 15 -3 19 -19 8
-32 -32 -47 -146 -16 -123 -7 -170 36 -197 39 -24 87 -76 125 -137 l28 -43 12
31 c23 54 85 142 134 190 l48 46 -11 52 c-13 63 -14 165 -2 209 9 31 8 41 -3
24z"/>
<path d="M1536 917 c-23 -17 -36 -80 -25 -122 16 -57 55 -95 98 -95 68 0 161
66 161 114 0 31 -47 73 -109 96 -59 23 -100 25 -125 7z"/>
<path d="M1325 420 c-50 -34 -151 -60 -229 -60 -63 1 -116 13 -188 45 -17 7
-17 5 -2 -31 11 -26 14 -51 9 -82 -6 -43 -6 -45 17 -38 85 27 241 31 374 10
l41 -6 6 63 c4 35 9 76 13 92 8 32 -1 34 -41 7z"/>
</g>
</svg>
